<svg width="29" height="27" viewBox="0 0 29 27" fill="none" xmlns="http://www.w3.org/2000/svg">
<path d="M26.8656 17.3793C25.2199 16.7166 24.5384 15.9264 24.5384 14.3836C24.5384 13.4541 25.1445 13.7572 25.4113 12.0592C25.5229 11.3574 26.0594 12.0476 26.1623 10.4425C26.1623 9.803 25.8695 9.6435 25.8695 9.6435C25.8695 9.6435 26.0188 8.6923 26.0768 7.96295C26.1493 7.0538 25.549 4.7048 22.7882 4.7048C20.0289 4.7048 19.4271 7.0538 19.4981 7.96295C19.559 8.69085 19.707 9.6435 19.707 9.6435C19.707 9.6435 19.4141 9.80155 19.4141 10.4425C19.517 12.0476 20.0535 11.3574 20.1652 12.0592C20.432 13.7586 21.0381 13.4556 21.0381 14.3836C21.0381 15.9264 20.403 16.6485 18.415 17.504C18.315 17.546 18.241 17.6026 18.1497 17.6519C20.5277 18.6843 24.2774 20.4663 25.1648 24.1H29C29 24.1 29 21.3363 29 20.7389C29 19.2889 28.6042 18.0796 26.8656 17.3793Z" fill="#44C2D2"/>
<path d="M23.1841 25.7371C23.1841 22.4804 20.0129 20.823 16.9244 19.4919C13.8461 18.1666 12.863 17.0501 12.863 14.6576C12.863 13.2236 13.8026 13.6905 14.2144 11.0602C14.3884 9.96975 15.2177 11.0428 15.3772 8.5531C15.3772 7.5613 14.9234 7.3148 14.9234 7.3148C14.9234 7.3148 15.1539 5.84595 15.2438 4.71495C15.3366 3.5303 14.6668 1.00295 11.9074 0.2272C11.1553 0.0087333 9.09121 -0.15038 6.85125 0.9609C5.3795 2.0571 4.9822 3.79275 5.05325 4.7164C5.1475 5.8474 5.3766 7.31625 5.3766 7.31625C5.3766 7.31625 4.9213 7.56275 4.9213 8.55455C5.0808 11.0456 5.9131 9.9712 6.08565 11.0616C6.49745 13.6919 7.4385 13.225 7.4385 14.6591C7.4385 17.0516 7.1311 17.8636 4.0513 19.1889C0.96135 20.5185 0 22.65 0.01595 25.7371C0.0203 26.6607 0 27 0 27H23.2C23.2 27 23.1841 26.6607 23.1841 25.7371Z" fill="#44C2D2"/>
</svg>
